<?xml version="1.0" standalone="no"?>
<!DOCTYPE svg PUBLIC "-//W3C//DTD SVG 20010904//EN"
 "http://www.w3.org/TR/2001/REC-SVG-20010904/DTD/svg10.dtd">
<svg version="1.0" xmlns="http://www.w3.org/2000/svg"
 width="460.000000pt" height="460.000000pt" viewBox="0 0 460.000000 460.000000"
 preserveAspectRatio="xMidYMid meet">
<metadata>
Created by potrace 1.16, written by Peter Selinger 2001-2019
</metadata>
<g transform="translate(0.000000,460.000000) scale(0.100000,-0.100000)"
fill="#000000" stroke="none">
<path d="M1 3838 c0 -838 -4 -786 49 -623 7 22 32 82 56 132 24 51 44 95 44
98 0 3 15 29 33 58 18 28 37 60 42 69 30 52 127 186 149 207 14 14 26 28 26
33 0 5 20 27 44 51 24 23 45 47 47 52 7 16 311 285 323 285 4 0 33 19 64 42
63 47 76 54 261 150 71 36 144 71 163 77 18 5 67 24 108 41 41 17 102 38 135
46 186 44 209 43 -697 43 l-848 1 1 -762z"/>
<path d="M2875 4595 c12 -4 103 -29 165 -45 119 -31 381 -146 508 -222 34 -21
65 -38 68 -38 13 0 249 -178 313 -235 145 -130 288 -296 390 -453 42 -64 130
-230 152 -284 11 -28 28 -70 38 -92 30 -68 39 -97 61 -186 12 -47 24 -87 26
-89 2 -2 4 368 4 822 l0 827 -867 -1 c-478 0 -863 -2 -858 -4z"/>
<path d="M758 2698 l-58 -79 0 -175 c0 -172 0 -175 25 -199 23 -24 28 -25 179
-25 l155 0 3 103 3 102 28 3 27 3 0 -140 c0 -157 5 -164 56 -88 16 23 39 55
51 70 22 27 23 37 23 192 0 158 -8 211 -33 227 -15 10 -228 10 -243 0 -29 -19
-34 -56 -34 -258 l0 -208 -42 56 c-24 31 -51 58 -60 61 -16 5 -18 26 -20 220
l-3 214 -57 -79z"/>
<path d="M1600 2741 l0 -41 -127 0 c-71 0 -133 -4 -139 -8 -29 -19 -34 -56
-34 -237 0 -251 -16 -235 235 -235 l185 0 0 76 0 77 24 -26 c14 -15 50 -63 82
-107 32 -44 61 -80 66 -80 4 0 8 53 8 117 l0 117 -31 32 -32 33 32 39 c31 40
31 40 31 158 -1 106 -2 117 -15 100 -8 -11 -25 -31 -39 -46 -13 -15 -29 -37
-35 -48 -6 -12 -29 -42 -51 -67 l-40 -46 0 37 c0 35 -35 104 -52 104 -4 0 -17
18 -28 39 -28 56 -40 60 -40 12z m0 -277 c0 -209 -1 -225 -16 -213 -9 8 -27
30 -40 51 -21 33 -28 37 -71 40 l-48 3 -3 100 c-4 139 -2 145 53 145 42 0 47
3 82 50 20 28 39 50 40 50 2 0 3 -102 3 -226z"/>
<path d="M2671 2644 l-1 -140 -30 0 -30 0 0 98 0 98 -224 0 c-259 0 -248 4
-254 -97 -4 -56 -2 -67 17 -84 11 -11 21 -24 21 -29 0 -6 15 -27 34 -47 18
-21 41 -53 50 -70 l17 -33 -55 0 c-53 0 -54 0 -101 -57 l-47 -58 157 -3 c202
-3 205 -2 205 102 0 62 -3 76 -21 92 -12 10 -37 42 -54 69 -18 28 -40 57 -49
64 -31 26 -18 37 41 38 49 0 60 4 78 27 11 14 30 39 42 54 l22 27 1 -198 0
-198 58 -77 57 -77 5 140 5 140 28 3 27 3 0 -105 0 -106 60 0 60 0 0 203 c0
221 2 210 -64 288 -17 19 -36 44 -43 55 -9 15 -12 -9 -12 -122z"/>
<path d="M4100 2625 c-1 -146 -2 -158 -16 -140 -15 20 -15 20 -30 1 -8 -11
-15 -16 -16 -10 0 5 -2 14 -3 19 -2 6 -3 54 -4 108 l-1 97 -55 0 -55 0 0 -277
c0 -152 2 -274 4 -272 29 33 97 123 115 152 12 20 26 37 29 37 4 0 18 -17 32
-38 14 -20 45 -63 70 -96 l45 -58 3 231 c3 254 2 259 -62 332 -17 19 -36 44
-43 55 -9 15 -12 -13 -13 -141z"/>
<path d="M300 2694 c0 -4 17 -29 37 -57 24 -32 33 -52 25 -55 -9 -3 -12 -43
-12 -144 0 -126 2 -142 21 -166 11 -15 36 -49 56 -75 19 -27 38 -45 41 -42 4
4 5 37 4 73 l-3 67 31 -37 c27 -32 38 -38 71 -38 60 0 89 33 89 102 0 55 -15
87 -54 119 -20 16 -20 17 17 62 29 36 37 54 37 86 0 44 -15 92 -33 103 -14 9
-327 11 -327 2z"/>
<path d="M2869 2683 c-11 -12 -15 -68 -17 -240 l-3 -223 60 0 61 0 0 105 0
105 30 0 29 0 3 -141 3 -141 58 74 58 73 -3 193 c-2 158 -6 194 -18 202 -8 5
-67 10 -131 10 -96 0 -119 -3 -130 -17z"/>
<path d="M3210 2460 l0 -240 55 0 55 0 0 35 c0 19 3 35 8 35 4 0 20 -16 35
-35 23 -29 34 -35 67 -35 75 0 83 26 78 272 -2 130 -7 179 -17 191 -11 14 -35
17 -147 17 l-134 0 0 -240z m180 4 l0 -125 -32 3 -33 3 -3 109 c-1 61 0 116 2
123 3 7 19 13 36 13 l30 0 0 -126z"/>
<path d="M3584 2686 c-17 -13 -19 -30 -22 -213 -3 -190 -2 -200 18 -226 21
-26 24 -27 130 -27 121 0 135 6 146 65 3 18 4 113 3 210 -4 161 -6 178 -23
191 -28 20 -224 20 -252 0z"/>
<path d="M4587 2038 c-27 -121 -93 -310 -136 -388 -4 -8 -25 -49 -46 -90 -44
-87 -108 -187 -178 -280 -59 -78 -210 -247 -246 -275 -14 -11 -40 -33 -58 -50
-57 -54 -255 -205 -268 -205 -4 0 -25 -13 -48 -29 -99 -68 -399 -209 -502
-237 -27 -7 -95 -27 -150 -44 -55 -17 -176 -43 -270 -57 -235 -37 -555 -39
-780 -5 -166 25 -245 43 -332 73 -32 11 -78 24 -103 30 -63 14 -281 108 -395
171 -97 52 -233 140 -255 163 -13 14 -28 25 -33 25 -10 0 -75 52 -180 145 -95
84 -248 257 -322 365 -93 136 -220 384 -244 477 -6 23 -18 57 -26 75 -12 29
-14 -84 -15 -934 l0 -968 2300 0 2300 0 0 1030 c0 567 -2 1030 -4 1030 -2 0
-6 -10 -9 -22z"/>
</g>
</svg>
